<?xml version="1.0" encoding="utf-8"?>
<!-- Generator: Adobe Illustrator 28.0.0, SVG Export Plug-In . SVG Version: 6.00 Build 0)  -->
<svg version="1.1" xmlns="http://www.w3.org/2000/svg" xmlns:xlink="http://www.w3.org/1999/xlink" x="0px" y="0px"
	 viewBox="0 0 200 200" style="enable-background:new 0 0 200 200;" xml:space="preserve">
<style type="text/css">
	.st0{fill:#8B8EA9;}
	.st1{fill:#3B426F;}
</style>
<g id="Layer_1">
</g>
<g id="Isolation_Mode">
	<g>
		<path class="st0" d="M60.2,89.8C60.2,89.8,60.2,89.8,60.2,89.8L55.9,108c-0.6,2.4,2.1,4.4,4.2,3.1l15.9-9.7c0,0,0,0,0,0l15.9,9.7
			c2.1,1.3,4.8-0.6,4.2-3.1l-4.3-18.2c0,0,0,0,0,0l14.2-12.2c1.9-1.6,0.9-4.7-1.6-4.9l-18.6-1.5c0,0,0,0,0,0L78.7,54
			c-1-2.3-4.2-2.3-5.2,0l-7.2,17.2l-18.6,1.5c-2.5,0.2-3.5,3.3-1.6,4.9L60.2,89.8z"/>
		<path class="st1" d="M75.8,159.4c-17.2,0-33.7-5.9-47.2-16.9C-3.3,116.4-8,69.2,18.1,37.3C44.1,5.4,91.3,0.6,123.2,26.7l0,0
			c15.5,12.6,25.1,30.5,27.1,50.4c2,19.9-3.8,39.3-16.5,54.8c-12.6,15.5-30.5,25.1-50.4,27.1C80.9,159.2,78.4,159.4,75.8,159.4z
			 M76,27.5c-16.6,0-33,7.2-44.3,21C22,60.3,17.6,75.2,19.1,90.3s8.9,28.9,20.7,38.5c11.8,9.7,26.7,14.1,41.9,12.6
			c15.2-1.5,28.9-8.9,38.5-20.7c9.7-11.8,14.1-26.7,12.6-41.9c-1.5-15.2-8.9-28.9-20.7-38.5l0,0C101.5,31.7,88.7,27.5,76,27.5z"/>
		<path class="st1" d="M196.7,182.8l-0.4,0.5c-3.9,4.8-11,5.5-15.8,1.6l-39.4-32.1c-1.6-1.3-1.8-3.6-0.5-5.2l9.9-12.1
			c1.3-1.6,3.6-1.8,5.2-0.5l39.4,32.1C199.9,171,200.6,178.1,196.7,182.8z"/>
		<path class="st1" d="M141.6,127.6l-10.4,12.7c-1.1,1.4-0.9,3.5,0.5,4.6l1.6,1.3c1.4,1.1,3.5,0.9,4.6-0.5l10.4-12.7
			c1.1-1.4,0.9-3.5-0.5-4.6l-1.6-1.3C144.8,126,142.8,126.2,141.6,127.6z"/>
	</g>
</g>
</svg>
