<?xml version="1.0" encoding="utf-8"?>
<!-- Generator: Adobe Illustrator 28.0.0, SVG Export Plug-In . SVG Version: 6.00 Build 0)  -->
<svg version="1.1" xmlns="http://www.w3.org/2000/svg" xmlns:xlink="http://www.w3.org/1999/xlink" x="0px" y="0px"
	 viewBox="0 0 200 200" style="enable-background:new 0 0 200 200;" xml:space="preserve">
<style type="text/css">
	.st0{fill:#3B426F;}
	.st1{fill:#8B8EA9;}
	.st2{display:none;}
	.st3{display:inline;}
</style>
<g id="Layer_1">
	<g>
		<g>
			<path class="st0" d="M189.7,91.2h-9.8l-0.1-2c-3.5-38.7-34.1-69.3-72.8-72.8l-2-0.1V6.4c0-2.9-2.4-5.3-5.2-5.3
				c-2.9,0-5.3,2.4-5.3,5.3v9.8l-2,0.1c-38.7,3.5-69.3,34.1-72.8,72.8l-0.1,2H9.7c-2.9,0-5.3,2.3-5.3,5.2c0,2.9,2.4,5.3,5.3,5.3h9.8
				l0.1,2c2.4,26.4,17.4,49.1,39.1,61.9c0.1-3.9,1-7.7,2.2-11.2c-16.7-11.2-28.4-29.4-30.7-50.2l-0.3-2.5h7.7c2.9,0,5.3-2.4,5.3-5.3
				c0-2.9-2.4-5.2-5.3-5.2H30l0.3-2.5C33.9,56.5,59.8,30.6,92,27l2.5-0.3v7.7c0,2.9,2.4,5.3,5.3,5.3c2.8,0,5.2-2.4,5.2-5.3v-7.7
				l2.5,0.3c32.2,3.6,58.2,29.5,61.7,61.6l0.3,2.5h-7.7c-2.9,0-5.3,2.3-5.3,5.2c0,2.9,2.4,5.3,5.3,5.3h7.7l-0.3,2.5
				c-2.2,20.9-13.9,39-30.7,50.2c1.3,3.6,2.1,7.3,2.2,11.2c21.7-12.8,36.7-35.5,39.1-61.9l0.1-2h9.8c2.9,0,5.3-2.4,5.3-5.3
				C195,93.5,192.6,91.2,189.7,91.2z"/>
		</g>
		<g>
			<path class="st0" d="M107.3,98.2H92.1c-11.1,0-20.4,8.3-21.7,19.3l-2.1,17.8c-0.3,2.3,1.2,4.5,3.5,5c8.8,1.9,18.2,2.9,28,2.9
				c9.8,0,19.2-1,28-2.9c2.3-0.5,3.8-2.7,3.5-5l-2.1-17.8C127.7,106.5,118.4,98.2,107.3,98.2z"/>
			<path class="st0" d="M99.7,92.6c11.4,0,20.6-9.2,20.6-20.6c0-11.4-9.2-20.6-20.6-20.6c-11.4,0-20.6,9.2-20.6,20.6
				C79.1,83.4,88.3,92.6,99.7,92.6z"/>
		</g>
		<g>
			<g>
				<path class="st1" d="M131.1,168.1c0-17.3-14.1-31.4-31.4-31.4c-17.3,0-31.4,14.1-31.4,31.4c0,17.3,14.1,31.4,31.4,31.4
					C117,199.5,131.1,185.4,131.1,168.1z M96.3,181.5c-1.2,0-2.3-0.5-3.2-1.4l-8.9-9.6c-1.6-1.7-1.5-4.5,0.2-6.1
					c1.7-1.6,4.5-1.5,6.1,0.2l5.8,6.2l12.7-13.6c1.6-1.7,4.4-1.8,6.1-0.2c1.7,1.6,1.8,4.4,0.2,6.1l-15.8,17
					C98.6,181,97.4,181.5,96.3,181.5z"/>
			</g>
		</g>
	</g>
</g>
<g id="Isolation_Mode" class="st2">
	<g class="st3">
		<path class="st1" d="M60.2,89.8C60.2,89.8,60.2,89.8,60.2,89.8L55.9,108c-0.6,2.4,2.1,4.4,4.2,3.1l15.9-9.7c0,0,0,0,0,0l15.9,9.7
			c2.1,1.3,4.8-0.6,4.2-3.1l-4.3-18.2c0,0,0,0,0,0l14.2-12.2c1.9-1.6,0.9-4.7-1.6-4.9l-18.6-1.5c0,0,0,0,0,0L78.7,54
			c-1-2.3-4.2-2.3-5.2,0l-7.2,17.2l-18.6,1.5c-2.5,0.2-3.5,3.3-1.6,4.9L60.2,89.8z"/>
		<path class="st0" d="M75.8,159.4c-17.2,0-33.7-5.9-47.2-16.9C-3.3,116.4-8,69.2,18.1,37.3C44.1,5.4,91.3,0.6,123.2,26.7l0,0
			c15.5,12.6,25.1,30.5,27.1,50.4c2,19.9-3.8,39.3-16.5,54.8c-12.6,15.5-30.5,25.1-50.4,27.1C80.9,159.2,78.4,159.4,75.8,159.4z
			 M76,27.5c-16.6,0-33,7.2-44.3,21C22,60.3,17.6,75.2,19.1,90.3s8.9,28.9,20.7,38.5c11.8,9.7,26.7,14.1,41.9,12.6
			c15.2-1.5,28.9-8.9,38.5-20.7c9.7-11.8,14.1-26.7,12.6-41.9c-1.5-15.2-8.9-28.9-20.7-38.5l0,0C101.5,31.7,88.7,27.5,76,27.5z"/>
		<path class="st0" d="M196.7,182.8l-0.4,0.5c-3.9,4.8-11,5.5-15.8,1.6l-39.4-32.1c-1.6-1.3-1.8-3.6-0.5-5.2l9.9-12.1
			c1.3-1.6,3.6-1.8,5.2-0.5l39.4,32.1C199.9,171,200.6,178.1,196.7,182.8z"/>
		<path class="st0" d="M141.6,127.6l-10.4,12.7c-1.1,1.4-0.9,3.5,0.5,4.6l1.6,1.3c1.4,1.1,3.5,0.9,4.6-0.5l10.4-12.7
			c1.1-1.4,0.9-3.5-0.5-4.6l-1.6-1.3C144.8,126,142.8,126.2,141.6,127.6z"/>
	</g>
</g>
</svg>
