<?xml version="1.0" encoding="utf-8"?>
<!-- Generator: Adobe Illustrator 28.0.0, SVG Export Plug-In . SVG Version: 6.00 Build 0)  -->
<svg version="1.1" xmlns="http://www.w3.org/2000/svg" xmlns:xlink="http://www.w3.org/1999/xlink" x="0px" y="0px"
	 viewBox="0 0 200 200" style="enable-background:new 0 0 200 200;" xml:space="preserve">
<style type="text/css">
	.st0{display:none;}
	.st1{display:inline;}
	.st2{fill:#3B426F;}
	.st3{fill:#8B8EA9;}
</style>
<g id="Layer_1" class="st0">
	<g class="st1">
		<g>
			<path class="st2" d="M189.7,91.2h-9.8l-0.1-2c-3.5-38.7-34.1-69.3-72.8-72.8l-2-0.1V6.4c0-2.9-2.4-5.3-5.2-5.3
				c-2.9,0-5.3,2.4-5.3,5.3v9.8l-2,0.1c-38.7,3.5-69.3,34.1-72.8,72.8l-0.1,2H9.7c-2.9,0-5.3,2.3-5.3,5.2c0,2.9,2.4,5.3,5.3,5.3h9.8
				l0.1,2c2.4,26.4,17.4,49.1,39.1,61.9c0.1-3.9,1-7.7,2.2-11.2c-16.7-11.2-28.4-29.4-30.7-50.2l-0.3-2.5h7.7c2.9,0,5.3-2.4,5.3-5.3
				c0-2.9-2.4-5.2-5.3-5.2H30l0.3-2.5C33.9,56.5,59.8,30.6,92,27l2.5-0.3v7.7c0,2.9,2.4,5.3,5.3,5.3c2.8,0,5.2-2.4,5.2-5.3v-7.7
				l2.5,0.3c32.2,3.6,58.2,29.5,61.7,61.6l0.3,2.5h-7.7c-2.9,0-5.3,2.3-5.3,5.2c0,2.9,2.4,5.3,5.3,5.3h7.7l-0.3,2.5
				c-2.2,20.9-13.9,39-30.7,50.2c1.3,3.6,2.1,7.3,2.2,11.2c21.7-12.8,36.7-35.5,39.1-61.9l0.1-2h9.8c2.9,0,5.3-2.4,5.3-5.3
				C195,93.5,192.6,91.2,189.7,91.2z"/>
		</g>
		<g>
			<path class="st2" d="M107.3,98.2H92.1c-11.1,0-20.4,8.3-21.7,19.3l-2.1,17.8c-0.3,2.3,1.2,4.5,3.5,5c8.8,1.9,18.2,2.9,28,2.9
				c9.8,0,19.2-1,28-2.9c2.3-0.5,3.8-2.7,3.5-5l-2.1-17.8C127.7,106.5,118.4,98.2,107.3,98.2z"/>
			<path class="st2" d="M99.7,92.6c11.4,0,20.6-9.2,20.6-20.6c0-11.4-9.2-20.6-20.6-20.6c-11.4,0-20.6,9.2-20.6,20.6
				C79.1,83.4,88.3,92.6,99.7,92.6z"/>
		</g>
		<g>
			<g>
				<path class="st3" d="M131.1,168.1c0-17.3-14.1-31.4-31.4-31.4c-17.3,0-31.4,14.1-31.4,31.4c0,17.3,14.1,31.4,31.4,31.4
					C117,199.5,131.1,185.4,131.1,168.1z M96.3,181.5c-1.2,0-2.3-0.5-3.2-1.4l-8.9-9.6c-1.6-1.7-1.5-4.5,0.2-6.1
					c1.7-1.6,4.5-1.5,6.1,0.2l5.8,6.2l12.7-13.6c1.6-1.7,4.4-1.8,6.1-0.2c1.7,1.6,1.8,4.4,0.2,6.1l-15.8,17
					C98.6,181,97.4,181.5,96.3,181.5z"/>
			</g>
		</g>
	</g>
</g>
<g id="Layer_4">
	<g>
		<g>
			<path class="st2" d="M24.6,93.1c-0.1-0.3-0.1-0.7-0.1-1c0-42.1,34.3-76.4,76.3-76.4c42.1,0,76.4,34.3,76.4,76.4
				c0,0.3,0,0.6-0.1,1c4.6,2.3,8.5,5.6,11.5,9.6c0.4-3.5,0.6-7,0.6-10.6c0-48.8-39.7-88.5-88.5-88.5C52.1,3.5,12.4,43.2,12.4,92
				c0,3.6,0.2,7.1,0.6,10.6C16,98.6,20,95.3,24.6,93.1z"/>
			<path class="st2" d="M18.7,121.9c0,11.1,9,20.2,20.2,20.2c11.1,0,20.2-9,20.2-20.2c0-11.1-9-20.2-20.2-20.2
				C27.8,101.8,18.7,110.8,18.7,121.9z"/>
			<path class="st2" d="M56.2,147.4c-4.9,3.4-10.9,5.3-17.3,5.3c-6.4,0-12.4-2-17.3-5.3c-9.7,5.5-16.3,15.9-16.3,27.8v4.1
				c0,4.5,3.7,8.1,8.1,8.1h43.3v-1.9c0-10.7,4-20.5,10.5-27.9C64.4,153.5,60.6,149.9,56.2,147.4z"/>
			<path class="st2" d="M163,101.8c-11.1,0-20.2,9-20.2,20.2c0,11.1,9,20.2,20.2,20.2c11.1,0,20.2-9,20.2-20.2
				C183.1,110.8,174.1,101.8,163,101.8z"/>
			<path class="st2" d="M180.2,147.4c-4.9,3.4-10.9,5.3-17.3,5.3c-6.4,0-12.4-2-17.3-5.3c-4.4,2.5-8.2,6-11,10.2
				c6.5,7.4,10.5,17.2,10.5,28v1.9h43.2c4.5,0,8.1-3.6,8.1-8.1v-4.1C196.6,163.3,190,152.9,180.2,147.4z"/>
			<path class="st2" d="M80.8,132.3c0,11.1,9,20.2,20.2,20.2c11.1,0,20.2-9,20.2-20.2c0-11.1-9-20.2-20.2-20.2
				C89.8,112.1,80.8,121.2,80.8,132.3z"/>
			<path class="st2" d="M118.2,157.8c-4.9,3.4-10.9,5.3-17.3,5.3c-6.4,0-12.4-2-17.3-5.3c-9.7,5.5-16.3,15.9-16.3,27.8v4.2
				c0,4.5,3.6,8.1,8.1,8.1h50.9c4.5,0,8.1-3.6,8.1-8.1v-4.2C134.5,173.6,128,163.2,118.2,157.8z"/>
			<path class="st3" d="M139.1,75.8V50c0-6.1-4.9-11-11-11H73.8c-6.1,0-11,4.9-11,11v25.9c0,6.1,4.9,11,11,11H90l7,12.4
				c1.7,3.1,6.1,3.1,7.9,0l7-12.4h16.2C134.2,86.9,139.1,81.9,139.1,75.8z M100.9,56.7c3.4,0,6.2,2.8,6.2,6.2c0,3.4-2.8,6.2-6.2,6.2
				c-3.4,0-6.2-2.8-6.2-6.2C94.7,59.5,97.5,56.7,100.9,56.7z M79.9,69.1c-3.4,0-6.2-2.8-6.2-6.2c0-3.4,2.8-6.2,6.2-6.2
				c3.4,0,6.2,2.8,6.2,6.2C86.1,66.3,83.4,69.1,79.9,69.1z M121.9,69.1c-3.4,0-6.2-2.8-6.2-6.2c0-3.4,2.8-6.2,6.2-6.2
				c3.4,0,6.2,2.8,6.2,6.2C128.1,66.3,125.3,69.1,121.9,69.1z"/>
		</g>
	</g>
</g>
<g id="Layer_3" class="st0">
	<g class="st1">
		<g>
			<path class="st3" d="M21,125.6c-1-2.6-3.8-3.8-6.3-2.8c-2.5,1-3.8,3.8-2.8,6.3c2,5.3,4.5,10.4,7.4,15.3c0.6,1,1.5,1.7,2.5,2.1
				c1.4,0.5,2.9,0.4,4.3-0.4c2.3-1.4,3.1-4.4,1.7-6.8C25.1,135,22.9,130.4,21,125.6z"/>
			<path class="st3" d="M47.9,16.3c-4.7,3.2-9.2,6.7-13.3,10.7c-2,1.9-2,5-0.1,7c0.5,0.5,1.2,1,1.8,1.2c1.7,0.6,3.7,0.3,5.1-1.1
				c3.7-3.5,7.7-6.7,11.9-9.6c2.3-1.5,2.9-4.6,1.4-6.8C53.2,15.4,50.1,14.8,47.9,16.3z"/>
			<path class="st3" d="M54,166.6c-4.2-2.8-8.3-6-12-9.5c-2-1.9-5.1-1.8-6.9,0.2c-1.9,2-1.8,5.1,0.2,6.9c4.1,3.9,8.6,7.5,13.4,10.6
				c0.3,0.2,0.6,0.4,1,0.5c2.1,0.8,4.5,0,5.8-1.9C56.9,171.1,56.3,168.1,54,166.6z"/>
			<path class="st3" d="M25.6,45.3c-2.4-1.3-5.4-0.6-6.7,1.7c-2.8,4.8-5.3,9.9-7.2,15.2l-0.1,0.2c-0.9,2.5,0.4,5.3,2.9,6.2
				c2.5,0.9,5.4-0.4,6.4-3c1.8-4.7,3.9-9.3,6.5-13.6C28.7,49.7,27.9,46.7,25.6,45.3z"/>
			<path class="st3" d="M87.3,1.2c-5.6,0.8-11.2,2.1-16.6,3.9c-2.6,0.9-4,3.6-3.1,6.2c0.5,1.5,1.6,2.6,3,3.1c1,0.4,2.2,0.4,3.3,0.1
				c4.8-1.6,9.8-2.8,14.9-3.5c2.7-0.4,4.5-2.9,4.2-5.6C92.5,2.7,90,0.9,87.3,1.2z"/>
			<path class="st3" d="M185.5,102.4c-0.2,2.2,1.2,4.3,3.2,5c0.4,0.2,0.9,0.2,1.3,0.3c2.7,0.2,5.1-1.8,5.3-4.5
				c0.5-5.6,0.4-11.4-0.1-17c-0.3-2.7-2.7-4.7-5.4-4.4c-2.7,0.3-4.7,2.7-4.4,5.4C185.9,92.2,185.9,97.3,185.5,102.4z"/>
			<path class="st3" d="M15.8,88.1c0.2-2.7-1.8-5.1-4.5-5.3c-2.7-0.2-5.1,1.8-5.3,4.5c-0.5,5.6-0.5,11.4,0.1,17
				c0.2,1.9,1.5,3.5,3.2,4.1c0.7,0.3,1.4,0.4,2.2,0.3c2.7-0.3,4.7-2.7,4.4-5.4C15.4,98.3,15.3,93.2,15.8,88.1z"/>
			<path class="st3" d="M181.9,46.1c-1.4-2.3-4.4-3.1-6.7-1.7c-2.3,1.4-3.1,4.4-1.7,6.8c2.6,4.4,4.9,9,6.7,13.7
				c0.5,1.4,1.6,2.4,2.9,2.8c1.1,0.4,2.3,0.4,3.5,0c2.5-1,3.8-3.8,2.8-6.3C187.3,56.1,184.8,50.9,181.9,46.1z"/>
			<path class="st3" d="M159.7,156.7c-3.7,3.5-7.7,6.7-11.9,9.5c-2.3,1.5-2.9,4.6-1.4,6.8c0.6,0.9,1.4,1.5,2.4,1.9
				c1.4,0.5,3.1,0.4,4.4-0.5c4.7-3.1,9.2-6.7,13.3-10.6c2-1.9,2-5,0.1-6.9C164.8,154.8,161.7,154.8,159.7,156.7z"/>
			<path class="st3" d="M186.8,121.9c-2.5-0.9-5.4,0.5-6.4,3.1c-1.8,4.8-4,9.4-6.6,13.8c-1.4,2.3-0.6,5.4,1.7,6.7
				c0.3,0.1,0.5,0.3,0.8,0.4c2.2,0.8,4.7,0,5.9-2.1c2.9-4.9,5.3-10,7.3-15.4l0.1-0.3C190.7,125.5,189.4,122.9,186.8,121.9z"/>
			<path class="st3" d="M165.9,26.2c-4.2-3.9-8.7-7.4-13.4-10.5c-2.3-1.5-5.3-0.8-6.8,1.4c-1.5,2.3-0.8,5.3,1.4,6.8
				c4.2,2.8,8.3,5.9,12,9.4c0.5,0.5,1.1,0.8,1.7,1c1.8,0.7,3.9,0.2,5.3-1.2C167.9,31.2,167.8,28.1,165.9,26.2z"/>
			<path class="st3" d="M129.4,4.8c-5.4-1.7-11-3-16.6-3.7c-2.7-0.4-5.2,1.5-5.5,4.2c-0.3,2.3,1.1,4.5,3.2,5.2
				c0.3,0.1,0.7,0.2,1.1,0.3c5,0.6,10,1.8,14.9,3.3c2.6,0.8,5.4-0.6,6.2-3.2C133.5,8.4,131.9,5.9,129.4,4.8z"/>
		</g>
		<g>
			<path class="st2" d="M166.7,71.2c-0.1-4.9-4.5-8.3-9.1-7.5l-33.9,6.3c-7.6,1.4-15.3,2.1-23,2.1l0,0c-7.7,0-15.4-0.7-23-2.1
				l-33.5-6.2c-3.8-0.7-7.8,1.2-9.1,4.8c-1.7,4.6,1.2,9.4,5.8,10.2l40.5,7.5l0.5,20.7c0.4,13.4-1.1,26.7-4.4,39.7l-10.1,40.5
				c-1,4.2,0.8,8.7,4.8,10.4c5,2.2,10.5-0.7,11.7-5.8l14.8-59c0.5-2,3.4-2,3.9,0l14.8,59c1,3.9,4.5,6.5,8.3,6.5c1.3,0,2.6-0.3,3.9-1
				c3.6-1.8,5.3-6.1,4.3-10l-10.2-40.7c-3.3-13-4.7-26.3-4.4-39.7l0.5-20.7L160,79C163.8,78.3,166.8,75.1,166.7,71.2z"/>
			<circle class="st2" cx="100.6" cy="50.3" r="17.1"/>
		</g>
	</g>
</g>
<g id="Isolation_Mode" class="st0">
	<g class="st1">
		<path class="st3" d="M60.2,89.8C60.2,89.8,60.2,89.8,60.2,89.8L55.9,108c-0.6,2.4,2.1,4.4,4.2,3.1l15.9-9.7c0,0,0,0,0,0l15.9,9.7
			c2.1,1.3,4.8-0.6,4.2-3.1l-4.3-18.2c0,0,0,0,0,0l14.2-12.2c1.9-1.6,0.9-4.7-1.6-4.9l-18.6-1.5c0,0,0,0,0,0L78.7,54
			c-1-2.3-4.2-2.3-5.2,0l-7.2,17.2l-18.6,1.5c-2.5,0.2-3.5,3.3-1.6,4.9L60.2,89.8z"/>
		<path class="st2" d="M75.8,159.4c-17.2,0-33.7-5.9-47.2-16.9C-3.3,116.4-8,69.2,18.1,37.3C44.1,5.4,91.3,0.6,123.2,26.7l0,0
			c15.5,12.6,25.1,30.5,27.1,50.4c2,19.9-3.8,39.3-16.5,54.8c-12.6,15.5-30.5,25.1-50.4,27.1C80.9,159.2,78.4,159.4,75.8,159.4z
			 M76,27.5c-16.6,0-33,7.2-44.3,21C22,60.3,17.6,75.2,19.1,90.3s8.9,28.9,20.7,38.5c11.8,9.7,26.7,14.1,41.9,12.6
			c15.2-1.5,28.9-8.9,38.5-20.7c9.7-11.8,14.1-26.7,12.6-41.9c-1.5-15.2-8.9-28.9-20.7-38.5l0,0C101.5,31.7,88.7,27.5,76,27.5z"/>
		<path class="st2" d="M196.7,182.8l-0.4,0.5c-3.9,4.8-11,5.5-15.8,1.6l-39.4-32.1c-1.6-1.3-1.8-3.6-0.5-5.2l9.9-12.1
			c1.3-1.6,3.6-1.8,5.2-0.5l39.4,32.1C199.9,171,200.6,178.1,196.7,182.8z"/>
		<path class="st2" d="M141.6,127.6l-10.4,12.7c-1.1,1.4-0.9,3.5,0.5,4.6l1.6,1.3c1.4,1.1,3.5,0.9,4.6-0.5l10.4-12.7
			c1.1-1.4,0.9-3.5-0.5-4.6l-1.6-1.3C144.8,126,142.8,126.2,141.6,127.6z"/>
	</g>
</g>
</svg>
